# xmcd
#
# Track frame offsets:
#	150
#	18104
#	32825
#	44733
#	60661
#	75282
#	91538
#	112028
#	126818
#	143745
#	157958
#	177309
#	193710
#	210229
#	220268
#	236575
#	255267
#	276905
#	294817
#	314168
#
# Disc length: 4425 seconds
#
# Revision: 1
# Processed by: cddbd v1.5.2PL0 Copyright (c) Steve Scherf et al.
# Submitted via: audiograbber 1.83.01
#
DISCID=10114714
DTITLE=Various Artist - TT079
DYEAR=2002
DGENRE=Karaoke
TTITLE0=Martina McBride - Blessed
TTITLE1=Marsha Thornton - Bottle Of Wine And Patsy Cline
TTITLE2=Patty Loveless - Boys Are Back In Town
TTITLE3=Lee Ann Womack - Does My Ring Burn Your Finger
TTITLE4=Cyndi Thornson - I Always Like That Best
TTITLE5=Wild Horses - I Will Survive
TTITLE6=Jamie O'Neal -  Mark Wills - I'm Not Going To Do Anything Without You
TTITLE7=Chely Wright - Jezebel
TTITLE8=Leslie Satcher - Love Letters From Old Mexico
TTITLE9=Clarice Rose - Mile A Minute
TTITLE10=Chely Wright - One Night In Las Vegas
TTITLE11=Patty Loveless  - Travis Tritt - Out Of Control Raging Fire
TTITLE12=Meredith Edwards - Ready To Fall
TTITLE13=Faith Hill - Star Spangled Banner
TTITLE14=Reba McEntire - Sweet Music Man
TTITLE15=Jamie O'Neal - The Only Thing Wrong
TTITLE16=Dixie Chicks - Travelin' Soldier
TTITLE17=Chely Wright - What If We Fly
TTITLE18=Chely Wright - One Night In Las Vegas (W/ Vocal)
TTITLE19=Chely Wright - What If We Fly (W/ Vocal)
EXTD=
EXTT0=
EXTT1=
EXTT2=
EXTT3=
EXTT4=
EXTT5=
EXTT6=
EXTT7=
EXTT8=
EXTT9=
EXTT10=
EXTT11=
EXTT12=
EXTT13=
EXTT14=
EXTT15=
EXTT16=
EXTT17=
EXTT18=
EXTT19=
PLAYORDER=
